M48
;Layer_Color=6321
;FILE_FORMAT=2:5
INCH,LZ
;TYPE=PLATED
T1F00S00C0.00600
T2F00S00C0.00700
T3F00S00C0.00787
;TYPE=NON_PLATED
T4F00S00C0.03937
%
T01
X01063Y01075
X0118827Y0106976
X0117Y011
X0118827Y0113276
X01165Y01195
X0116036Y01219
X0122Y01227
Y01196
X01251Y01227
X0125126Y0125874
X0128276
Y0122724
Y0119575
Y0116425
X0131425
Y0113276
X0137724
X0140874
Y0110126
Y0106976
X01425Y01085
X01455
X0144024Y0106976
X0139483Y0105
X01425Y01015
X0145374Y010161
X0149Y0102
Y0105
Y0111
Y01135
Y0116
X01425Y0121
X0137724Y0119575
Y0122724
X0139115Y0124115
X0140874Y0125874
X01364Y0127198
X01377Y01322
X0140874Y0132173
X01398Y01344
X01441Y01352
X0145374Y0138504
X0149Y0133
X01535Y01335
X0144024Y0129024
X01298Y01307
X0134575Y0116425
Y0110126
X0137724
X0133414Y0105586
X0118504Y0098031
X01159Y0098035
X01155Y01439
X01095
X01196Y01459
X0119626Y0149138
Y0152287
X0121201
Y0150713
X0122775
Y0152287
X012435
Y0149138
X0125925
X0122775
X01284Y0153
Y01552
X01174Y01557
X01173Y01539
X01227Y01568
X01268Y01567
T02
X01023Y00948
X01012Y00999
Y0104873
X01Y0108858
X00953Y01095
X01127Y01132
X01123Y01163
X01047Y01303
X01125Y01391
X01235Y01429
X0125535Y01455
X01299Y01445
X01313Y01492
X0131465Y01525
X0138Y01529
X014Y0148756
X01354Y01485
X01362Y01445
X014Y01418
X01343Y01398
X01322Y01342
X01289Y01372
X01485Y01388
X01515Y01416
X01535Y0130435
Y01273
X01025Y014489
Y0151464
X0110516Y015611
X01061Y00975
X010285Y0160823
X01029Y01639
X01135Y01636
X0118Y01635
X01217Y01637
X01256Y0165
X01282Y01646
X01312Y01645
X01346Y01646
X01422Y01644
X0149Y0162
X01478Y01599
X01491Y0158
X01276Y01596
T03
X0109531Y0148531
X0113469
Y0152469
X0109531
X0145Y0158031
Y0161969
T04
X0103937Y0115748
X0147244Y0096063
X0155118Y013937
M30
