G04 Layer_Color=7318015*
%FSLAX25Y25*%
%MOIN*%
G70*
G01*
G75*
%ADD11R,0.01378X0.03150*%
%ADD12C,0.01181*%
%ADD13R,0.05512X0.03543*%
%ADD14R,0.03937X0.02756*%
%ADD15R,0.05709X0.04724*%
%ADD16R,0.04528X0.04724*%
%ADD17R,0.02756X0.03937*%
%ADD18R,0.02205X0.02047*%
%ADD19R,0.04724X0.05512*%
%ADD20R,0.03543X0.03347*%
%ADD21R,0.02047X0.02205*%
%ADD22R,0.02756X0.02756*%
%ADD23R,0.02165X0.02165*%
D11*
X100000Y108858D02*
D03*
X111811Y108957D02*
D03*
X100000Y94980D02*
D03*
X111811D02*
D03*
D12*
X147173Y103827D02*
D03*
Y106976D02*
D03*
Y110126D02*
D03*
Y113276D02*
D03*
Y116425D02*
D03*
Y119575D02*
D03*
Y122724D02*
D03*
Y125874D02*
D03*
Y129024D02*
D03*
Y132173D02*
D03*
X144024Y103827D02*
D03*
Y106976D02*
D03*
Y110126D02*
D03*
Y113276D02*
D03*
Y116425D02*
D03*
Y119575D02*
D03*
Y122724D02*
D03*
Y125874D02*
D03*
Y129024D02*
D03*
Y132173D02*
D03*
X140874Y103827D02*
D03*
Y106976D02*
D03*
Y110126D02*
D03*
Y113276D02*
D03*
Y116425D02*
D03*
Y119575D02*
D03*
Y122724D02*
D03*
Y125874D02*
D03*
Y129024D02*
D03*
Y132173D02*
D03*
X137724Y103827D02*
D03*
Y106976D02*
D03*
Y110126D02*
D03*
Y113276D02*
D03*
Y116425D02*
D03*
Y119575D02*
D03*
Y122724D02*
D03*
Y125874D02*
D03*
Y129024D02*
D03*
Y132173D02*
D03*
X134575Y103827D02*
D03*
Y106976D02*
D03*
Y110126D02*
D03*
Y113276D02*
D03*
Y116425D02*
D03*
Y119575D02*
D03*
Y122724D02*
D03*
Y125874D02*
D03*
Y129024D02*
D03*
Y132173D02*
D03*
X131425Y103827D02*
D03*
Y106976D02*
D03*
Y110126D02*
D03*
Y113276D02*
D03*
Y116425D02*
D03*
Y119575D02*
D03*
Y122724D02*
D03*
Y125874D02*
D03*
Y129024D02*
D03*
Y132173D02*
D03*
X128276Y103827D02*
D03*
Y106976D02*
D03*
Y110126D02*
D03*
Y113276D02*
D03*
Y116425D02*
D03*
Y119575D02*
D03*
Y122724D02*
D03*
Y125874D02*
D03*
Y129024D02*
D03*
Y132173D02*
D03*
X125126Y103827D02*
D03*
Y106976D02*
D03*
Y110126D02*
D03*
Y113276D02*
D03*
Y116425D02*
D03*
Y119575D02*
D03*
Y122724D02*
D03*
Y125874D02*
D03*
Y129024D02*
D03*
Y132173D02*
D03*
X121976Y103827D02*
D03*
Y106976D02*
D03*
Y110126D02*
D03*
Y113276D02*
D03*
Y116425D02*
D03*
Y119575D02*
D03*
Y122724D02*
D03*
Y125874D02*
D03*
Y129024D02*
D03*
Y132173D02*
D03*
X118827Y103827D02*
D03*
Y106976D02*
D03*
Y110126D02*
D03*
Y113276D02*
D03*
Y116425D02*
D03*
Y119575D02*
D03*
Y122724D02*
D03*
Y125874D02*
D03*
Y129024D02*
D03*
Y132173D02*
D03*
D13*
X147244Y144882D02*
D03*
D14*
X148031Y149409D02*
D03*
D15*
X147146Y153937D02*
D03*
D16*
X106201Y145590D02*
D03*
Y155669D02*
D03*
D17*
X140748Y159803D02*
D03*
X136417D02*
D03*
X132087D02*
D03*
X127756D02*
D03*
X110433D02*
D03*
X114764D02*
D03*
X119094D02*
D03*
X123425D02*
D03*
D18*
X114035Y164500D02*
D03*
X110965D02*
D03*
X143035Y141500D02*
D03*
X139964D02*
D03*
X133465Y138000D02*
D03*
X136535D02*
D03*
Y141500D02*
D03*
X133465D02*
D03*
X139964Y138000D02*
D03*
X143035D02*
D03*
X116464Y141500D02*
D03*
X119535D02*
D03*
X103665Y122000D02*
D03*
X106735D02*
D03*
X156535Y133600D02*
D03*
X153464D02*
D03*
X123465Y141500D02*
D03*
X126535D02*
D03*
Y138000D02*
D03*
X123465D02*
D03*
X119535D02*
D03*
X116464D02*
D03*
X106735Y125500D02*
D03*
X103665D02*
D03*
X139464Y164500D02*
D03*
X142535D02*
D03*
X149035D02*
D03*
X145965D02*
D03*
X128235D02*
D03*
X125164D02*
D03*
D19*
X104954Y139331D02*
D03*
Y130669D02*
D03*
X111646Y139331D02*
D03*
Y130669D02*
D03*
D20*
X95100Y95141D02*
D03*
Y100259D02*
D03*
D21*
X156800Y130435D02*
D03*
Y127365D02*
D03*
X153500D02*
D03*
Y130435D02*
D03*
X119200Y95065D02*
D03*
Y98135D02*
D03*
X112900Y113365D02*
D03*
Y116435D02*
D03*
X109700Y113265D02*
D03*
Y116335D02*
D03*
X115900Y94964D02*
D03*
Y98035D02*
D03*
D22*
X112000Y125756D02*
D03*
Y120244D02*
D03*
D23*
X130000Y141772D02*
D03*
Y138228D02*
D03*
X95300Y108672D02*
D03*
Y105128D02*
D03*
M02*
