G04 Layer_Physical_Order=5*
G04 Layer_Color=553216*
%FSLAX25Y25*%
%MOIN*%
G70*
G01*
G75*
%ADD31C,0.02000*%
%ADD32C,0.05537*%
%ADD33C,0.02300*%
%ADD34C,0.02200*%
%ADD36C,0.02387*%
D31*
X96063Y111811D02*
G03*
X100000Y115748I0J3937D01*
G01*
X151181Y147209D02*
G03*
X155186Y143204I4005J0D01*
G01*
X159055Y139370D02*
G03*
X155254Y143204I-3858J-24D01*
G01*
X155152Y123622D02*
G03*
X159055Y127525I0J3903D01*
G01*
X155152Y123622D02*
G03*
X151181Y119651I-0J-3971D01*
G01*
X147243Y92058D02*
G03*
X151181Y95995I0J3938D01*
G01*
X143239Y96062D02*
G03*
X147243Y92058I4004J0D01*
G01*
X143239Y96062D02*
G03*
X139785Y99516I-3453J0D01*
G01*
X125088Y99516D02*
G03*
X121653Y96045I18J-3452D01*
G01*
X92126Y92126D02*
Y111811D01*
X96063D01*
X100000Y115748D02*
Y166929D01*
X151181D01*
Y149213D02*
Y166929D01*
Y147209D02*
Y149213D01*
X155186Y143204D02*
X155254D01*
X159055Y129527D02*
Y139370D01*
Y127525D02*
Y129527D01*
X151181Y95995D02*
Y119651D01*
X125248Y99516D02*
X139785D01*
X125088D02*
X125248D01*
X121653Y92126D02*
Y96045D01*
X92126Y92126D02*
X121653D01*
D32*
X155118Y139370D02*
D03*
X147244Y96063D02*
D03*
X103937Y115748D02*
D03*
D33*
X102500Y144890D02*
D03*
X112500Y139100D02*
D03*
X131200Y164500D02*
D03*
X134600Y164600D02*
D03*
X128200D02*
D03*
X125600Y165000D02*
D03*
X121700Y163700D02*
D03*
X151500Y141600D02*
D03*
X149100Y158000D02*
D03*
X134300Y139800D02*
D03*
X100000Y108858D02*
D03*
X112700Y113200D02*
D03*
X131300Y149200D02*
D03*
X128900Y137200D02*
D03*
X132200Y134200D02*
D03*
X135400Y148500D02*
D03*
X136200Y144500D02*
D03*
X148500Y138800D02*
D03*
X140000Y141800D02*
D03*
X138000Y152900D02*
D03*
X106100Y97500D02*
D03*
X95300Y109500D02*
D03*
X113500Y163600D02*
D03*
X104700Y130300D02*
D03*
X123500Y142900D02*
D03*
X102500Y151464D02*
D03*
X127600Y159600D02*
D03*
X110516Y156110D02*
D03*
X129900Y144500D02*
D03*
X142200Y164400D02*
D03*
X118000Y163500D02*
D03*
X147800Y159900D02*
D03*
X149000Y162000D02*
D03*
X153500Y130435D02*
D03*
X101200Y104873D02*
D03*
X102300Y94800D02*
D03*
D34*
X139115Y124115D02*
D03*
X137724Y122724D02*
D03*
X140874Y125874D02*
D03*
X116500Y119500D02*
D03*
X122000Y119600D02*
D03*
X117000Y110000D02*
D03*
X129800Y130700D02*
D03*
X125126Y125874D02*
D03*
X106300Y107500D02*
D03*
X122000Y122700D02*
D03*
X125100D02*
D03*
X116036Y121900D02*
D03*
X115900Y98035D02*
D03*
X142500Y121000D02*
D03*
X139800Y134400D02*
D03*
X140874Y132173D02*
D03*
X137700Y132200D02*
D03*
X145374Y138504D02*
D03*
X153500Y133500D02*
D03*
X122700Y156800D02*
D03*
X115500Y143900D02*
D03*
X109500D02*
D03*
X139483Y105000D02*
D03*
X140874Y113276D02*
D03*
Y110126D02*
D03*
Y106976D02*
D03*
X125925Y149138D02*
D03*
X124350D02*
D03*
X121201Y152287D02*
D03*
Y150713D02*
D03*
X122775D02*
D03*
Y152287D02*
D03*
X124350D02*
D03*
X144024Y129024D02*
D03*
Y106976D02*
D03*
X118827D02*
D03*
X134575Y110126D02*
D03*
X131425Y113276D02*
D03*
Y116425D02*
D03*
X128276D02*
D03*
Y119575D02*
D03*
X134575Y116425D02*
D03*
X137724Y119575D02*
D03*
X128276Y125874D02*
D03*
Y122724D02*
D03*
X149000Y105000D02*
D03*
Y116000D02*
D03*
X142500Y108500D02*
D03*
X137724Y110126D02*
D03*
X133414Y105586D02*
D03*
X149000Y111000D02*
D03*
X145374Y101610D02*
D03*
X149000Y133000D02*
D03*
Y102000D02*
D03*
Y113500D02*
D03*
X118827Y113276D02*
D03*
X128400Y153000D02*
D03*
X117400Y155700D02*
D03*
X117300Y153900D02*
D03*
X126800Y156700D02*
D03*
X128400Y155200D02*
D03*
X136400Y127198D02*
D03*
X119626Y149138D02*
D03*
X119600Y145900D02*
D03*
X122775Y149138D02*
D03*
X144100Y135200D02*
D03*
D36*
X145000Y158031D02*
D03*
Y161969D02*
D03*
X113469Y148531D02*
D03*
Y152469D02*
D03*
X109531Y148531D02*
D03*
Y152469D02*
D03*
M02*
