G04 Layer_Color=16755269*
%FSLAX25Y25*%
%MOIN*%
G70*
G01*
G75*
%ADD10C,0.00400*%
%ADD11C,0.00300*%
D10*
X106506Y104756D02*
Y102757D01*
X107506D01*
X107839Y103090D01*
Y104423D01*
X107506Y104756D01*
X106506D01*
X109838Y102757D02*
X108506D01*
X109838Y104089D01*
Y104423D01*
X109505Y104756D01*
X108839D01*
X108506Y104423D01*
X117000Y133299D02*
Y131633D01*
X117333Y131300D01*
X118000D01*
X118333Y131633D01*
Y133299D01*
X120332Y131300D02*
X118999D01*
X120332Y132633D01*
Y132966D01*
X119999Y133299D01*
X119333D01*
X118999Y132966D01*
X118423Y151960D02*
X117757D01*
X118090D01*
Y150294D01*
X117757Y149961D01*
X117424D01*
X117090Y150294D01*
X119090Y149961D02*
X119756D01*
X119423D01*
Y151960D01*
X119090Y151627D01*
X112033Y165466D02*
X111700Y165799D01*
X111033D01*
X110700Y165466D01*
Y164133D01*
X111033Y163800D01*
X111700D01*
X112033Y164133D01*
X114032Y163800D02*
X112699D01*
X114032Y165133D01*
Y165466D01*
X113699Y165799D01*
X113032D01*
X112699Y165466D01*
X114699Y163800D02*
X115365D01*
X115032D01*
Y165799D01*
X114699Y165466D01*
X106600Y136299D02*
Y135966D01*
X107266Y135300D01*
X107933Y135966D01*
Y136299D01*
X107266Y135300D02*
Y134300D01*
X108599D02*
X109266D01*
X108932D01*
Y136299D01*
X108599Y135966D01*
X94101Y96800D02*
X96100D01*
Y97800D01*
X95767Y98133D01*
X94434D01*
X94101Y97800D01*
Y96800D01*
X96100Y98799D02*
Y99466D01*
Y99133D01*
X94101D01*
X94434Y98799D01*
X134833Y138666D02*
X134500Y138999D01*
X133833D01*
X133500Y138666D01*
Y137333D01*
X133833Y137000D01*
X134500D01*
X134833Y137333D01*
X135499Y137000D02*
X136166D01*
X135833D01*
Y138999D01*
X135499Y138666D01*
X134833Y142166D02*
X134500Y142499D01*
X133833D01*
X133500Y142166D01*
Y140833D01*
X133833Y140500D01*
X134500D01*
X134833Y140833D01*
X136832Y140500D02*
X135499D01*
X136832Y141833D01*
Y142166D01*
X136499Y142499D01*
X135833D01*
X135499Y142166D01*
X155787Y128733D02*
X155454Y128400D01*
Y127733D01*
X155787Y127400D01*
X157120D01*
X157454Y127733D01*
Y128400D01*
X157120Y128733D01*
X155787Y129399D02*
X155454Y129733D01*
Y130399D01*
X155787Y130732D01*
X156121D01*
X156454Y130399D01*
Y130066D01*
Y130399D01*
X156787Y130732D01*
X157120D01*
X157454Y130399D01*
Y129733D01*
X157120Y129399D01*
X152834Y129133D02*
X152501Y128800D01*
Y128133D01*
X152834Y127800D01*
X154167D01*
X154500Y128133D01*
Y128800D01*
X154167Y129133D01*
X154500Y130799D02*
X152501D01*
X153500Y129799D01*
Y131132D01*
X141333Y138666D02*
X141000Y138999D01*
X140333D01*
X140000Y138666D01*
Y137333D01*
X140333Y137000D01*
X141000D01*
X141333Y137333D01*
X143332Y138999D02*
X142666Y138666D01*
X141999Y138000D01*
Y137333D01*
X142332Y137000D01*
X142999D01*
X143332Y137333D01*
Y137666D01*
X142999Y138000D01*
X141999D01*
X118334Y96233D02*
X118001Y95900D01*
Y95233D01*
X118334Y94900D01*
X119667D01*
X120000Y95233D01*
Y95900D01*
X119667Y96233D01*
X118001Y96899D02*
Y98232D01*
X118334D01*
X119667Y96899D01*
X120000D01*
X117433Y142166D02*
X117100Y142499D01*
X116433D01*
X116100Y142166D01*
Y140833D01*
X116433Y140500D01*
X117100D01*
X117433Y140833D01*
X118099Y142166D02*
X118432Y142499D01*
X119099D01*
X119432Y142166D01*
Y141833D01*
X119099Y141500D01*
X119432Y141166D01*
Y140833D01*
X119099Y140500D01*
X118432D01*
X118099Y140833D01*
Y141166D01*
X118432Y141500D01*
X118099Y141833D01*
Y142166D01*
X118432Y141500D02*
X119099D01*
X112234Y115233D02*
X111901Y114900D01*
Y114233D01*
X112234Y113900D01*
X113567D01*
X113900Y114233D01*
Y114900D01*
X113567Y115233D01*
Y115899D02*
X113900Y116233D01*
Y116899D01*
X113567Y117232D01*
X112234D01*
X111901Y116899D01*
Y116233D01*
X112234Y115899D01*
X112567D01*
X112900Y116233D01*
Y117232D01*
X104120Y123040D02*
X103786Y123373D01*
X103120D01*
X102787Y123040D01*
Y121707D01*
X103120Y121374D01*
X103786D01*
X104120Y121707D01*
X104786Y121374D02*
X105452D01*
X105119D01*
Y123373D01*
X104786Y123040D01*
X107785Y121374D02*
X106452D01*
X107785Y122707D01*
Y123040D01*
X107452Y123373D01*
X106785D01*
X106452Y123040D01*
X153833Y134366D02*
X153500Y134699D01*
X152833D01*
X152500Y134366D01*
Y133033D01*
X152833Y132700D01*
X153500D01*
X153833Y133033D01*
X154499Y132700D02*
X155166D01*
X154832D01*
Y134699D01*
X154499Y134366D01*
X156165D02*
X156499Y134699D01*
X157165D01*
X157498Y134366D01*
Y134033D01*
X157165Y133700D01*
X156832D01*
X157165D01*
X157498Y133366D01*
Y133033D01*
X157165Y132700D01*
X156499D01*
X156165Y133033D01*
X124333Y142166D02*
X124000Y142499D01*
X123333D01*
X123000Y142166D01*
Y140833D01*
X123333Y140500D01*
X124000D01*
X124333Y140833D01*
X124999Y140500D02*
X125666D01*
X125332D01*
Y142499D01*
X124999Y142166D01*
X127665Y140500D02*
Y142499D01*
X126665Y141500D01*
X127998D01*
X124333Y138666D02*
X124000Y138999D01*
X123333D01*
X123000Y138666D01*
Y137333D01*
X123333Y137000D01*
X124000D01*
X124333Y137333D01*
X124999Y137000D02*
X125666D01*
X125332D01*
Y138999D01*
X124999Y138666D01*
X127998Y138999D02*
X126665D01*
Y138000D01*
X127332Y138333D01*
X127665D01*
X127998Y138000D01*
Y137333D01*
X127665Y137000D01*
X126999D01*
X126665Y137333D01*
X108834Y113733D02*
X108501Y113400D01*
Y112733D01*
X108834Y112400D01*
X110167D01*
X110500Y112733D01*
Y113400D01*
X110167Y113733D01*
X110500Y114399D02*
Y115066D01*
Y114733D01*
X108501D01*
X108834Y114399D01*
X108501Y117398D02*
X108834Y116732D01*
X109500Y116065D01*
X110167D01*
X110500Y116399D01*
Y117065D01*
X110167Y117398D01*
X109834D01*
X109500Y117065D01*
Y116065D01*
X115334Y95533D02*
X115001Y95200D01*
Y94533D01*
X115334Y94200D01*
X116667D01*
X117000Y94533D01*
Y95200D01*
X116667Y95533D01*
X117000Y96199D02*
Y96866D01*
Y96532D01*
X115001D01*
X115334Y96199D01*
X115001Y97865D02*
Y99198D01*
X115334D01*
X116667Y97865D01*
X117000D01*
X116833Y138666D02*
X116500Y138999D01*
X115833D01*
X115500Y138666D01*
Y137333D01*
X115833Y137000D01*
X116500D01*
X116833Y137333D01*
X117499Y137000D02*
X118166D01*
X117833D01*
Y138999D01*
X117499Y138666D01*
X119165Y137333D02*
X119499Y137000D01*
X120165D01*
X120498Y137333D01*
Y138666D01*
X120165Y138999D01*
X119499D01*
X119165Y138666D01*
Y138333D01*
X119499Y138000D01*
X120498D01*
X104033Y126166D02*
X103700Y126499D01*
X103033D01*
X102700Y126166D01*
Y124833D01*
X103033Y124500D01*
X103700D01*
X104033Y124833D01*
X106032Y124500D02*
X104699D01*
X106032Y125833D01*
Y126166D01*
X105699Y126499D01*
X105033D01*
X104699Y126166D01*
X106699D02*
X107032Y126499D01*
X107698D01*
X108031Y126166D01*
Y124833D01*
X107698Y124500D01*
X107032D01*
X106699Y124833D01*
Y126166D01*
X139333Y165166D02*
X139000Y165499D01*
X138333D01*
X138000Y165166D01*
Y163833D01*
X138333Y163500D01*
X139000D01*
X139333Y163833D01*
X141332Y163500D02*
X139999D01*
X141332Y164833D01*
Y165166D01*
X140999Y165499D01*
X140332D01*
X139999Y165166D01*
X142998Y163500D02*
Y165499D01*
X141999Y164500D01*
X143332D01*
X146333Y165166D02*
X146000Y165499D01*
X145333D01*
X145000Y165166D01*
Y163833D01*
X145333Y163500D01*
X146000D01*
X146333Y163833D01*
X148332Y163500D02*
X146999D01*
X148332Y164833D01*
Y165166D01*
X147999Y165499D01*
X147333D01*
X146999Y165166D01*
X150331Y165499D02*
X148999D01*
Y164500D01*
X149665Y164833D01*
X149998D01*
X150331Y164500D01*
Y163833D01*
X149998Y163500D01*
X149332D01*
X148999Y163833D01*
X125533Y165166D02*
X125200Y165499D01*
X124533D01*
X124200Y165166D01*
Y163833D01*
X124533Y163500D01*
X125200D01*
X125533Y163833D01*
X126199Y165166D02*
X126532Y165499D01*
X127199D01*
X127532Y165166D01*
Y164833D01*
X127199Y164500D01*
X126866D01*
X127199D01*
X127532Y164166D01*
Y163833D01*
X127199Y163500D01*
X126532D01*
X126199Y163833D01*
X128199Y165166D02*
X128532Y165499D01*
X129198D01*
X129532Y165166D01*
Y163833D01*
X129198Y163500D01*
X128532D01*
X128199Y163833D01*
Y165166D01*
X111190Y121358D02*
X113189D01*
Y122691D01*
X111523Y123357D02*
X111190Y123691D01*
Y124357D01*
X111523Y124690D01*
X111856D01*
X112189Y124357D01*
Y124024D01*
Y124357D01*
X112522Y124690D01*
X112856D01*
X113189Y124357D01*
Y123691D01*
X112856Y123357D01*
X130900Y138700D02*
X128901D01*
Y139700D01*
X129234Y140033D01*
X129900D01*
X130234Y139700D01*
Y138700D01*
Y139366D02*
X130900Y140033D01*
Y140699D02*
Y141366D01*
Y141033D01*
X128901D01*
X129234Y140699D01*
X96300Y105400D02*
X94301D01*
Y106400D01*
X94634Y106733D01*
X95300D01*
X95634Y106400D01*
Y105400D01*
Y106066D02*
X96300Y106733D01*
Y108732D02*
Y107399D01*
X94967Y108732D01*
X94634D01*
X94301Y108399D01*
Y107732D01*
X94634Y107399D01*
D11*
X141333Y142166D02*
X141000Y142499D01*
X140333D01*
X140000Y142166D01*
Y140833D01*
X140333Y140500D01*
X141000D01*
X141333Y140833D01*
X143332Y142499D02*
X141999D01*
Y141500D01*
X142666Y141833D01*
X142999D01*
X143332Y141500D01*
Y140833D01*
X142999Y140500D01*
X142332D01*
X141999Y140833D01*
M02*
