G04 Layer_Color=20142*
%FSLAX25Y25*%
%MOIN*%
G70*
G01*
G75*
%ADD63R,0.01578X0.03350*%
%ADD64C,0.01381*%
%ADD65R,0.05712X0.03743*%
%ADD66R,0.04137X0.02956*%
%ADD67R,0.05909X0.04924*%
%ADD68R,0.04728X0.04924*%
%ADD69R,0.02956X0.04137*%
%ADD70R,0.02405X0.02247*%
%ADD71R,0.04924X0.05712*%
%ADD72R,0.03743X0.03547*%
%ADD73R,0.02247X0.02405*%
%ADD74R,0.02956X0.02956*%
%ADD75R,0.02365X0.02365*%
%ADD76C,0.02169*%
%ADD77C,0.01600*%
%ADD78C,0.01300*%
%ADD79C,0.01200*%
D63*
X100000Y108858D02*
D03*
X111811Y108957D02*
D03*
X100000Y94980D02*
D03*
X111811D02*
D03*
D64*
X147173Y103827D02*
D03*
Y106976D02*
D03*
Y110126D02*
D03*
Y113276D02*
D03*
Y116425D02*
D03*
Y119575D02*
D03*
Y122724D02*
D03*
Y125874D02*
D03*
Y129024D02*
D03*
Y132173D02*
D03*
X144024Y103827D02*
D03*
Y106976D02*
D03*
Y110126D02*
D03*
Y113276D02*
D03*
Y116425D02*
D03*
Y119575D02*
D03*
Y122724D02*
D03*
Y125874D02*
D03*
Y129024D02*
D03*
Y132173D02*
D03*
X140874Y103827D02*
D03*
Y106976D02*
D03*
Y110126D02*
D03*
Y113276D02*
D03*
Y116425D02*
D03*
Y119575D02*
D03*
Y122724D02*
D03*
Y125874D02*
D03*
Y129024D02*
D03*
Y132173D02*
D03*
X137724Y103827D02*
D03*
Y106976D02*
D03*
Y110126D02*
D03*
Y113276D02*
D03*
Y116425D02*
D03*
Y119575D02*
D03*
Y122724D02*
D03*
Y125874D02*
D03*
Y129024D02*
D03*
Y132173D02*
D03*
X134575Y103827D02*
D03*
Y106976D02*
D03*
Y110126D02*
D03*
Y113276D02*
D03*
Y116425D02*
D03*
Y119575D02*
D03*
Y122724D02*
D03*
Y125874D02*
D03*
Y129024D02*
D03*
Y132173D02*
D03*
X131425Y103827D02*
D03*
Y106976D02*
D03*
Y110126D02*
D03*
Y113276D02*
D03*
Y116425D02*
D03*
Y119575D02*
D03*
Y122724D02*
D03*
Y125874D02*
D03*
Y129024D02*
D03*
Y132173D02*
D03*
X128276Y103827D02*
D03*
Y106976D02*
D03*
Y110126D02*
D03*
Y113276D02*
D03*
Y116425D02*
D03*
Y119575D02*
D03*
Y122724D02*
D03*
Y125874D02*
D03*
Y129024D02*
D03*
Y132173D02*
D03*
X125126Y103827D02*
D03*
Y106976D02*
D03*
Y110126D02*
D03*
Y113276D02*
D03*
Y116425D02*
D03*
Y119575D02*
D03*
Y122724D02*
D03*
Y125874D02*
D03*
Y129024D02*
D03*
Y132173D02*
D03*
X121976Y103827D02*
D03*
Y106976D02*
D03*
Y110126D02*
D03*
Y113276D02*
D03*
Y116425D02*
D03*
Y119575D02*
D03*
Y122724D02*
D03*
Y125874D02*
D03*
Y129024D02*
D03*
Y132173D02*
D03*
X118827Y103827D02*
D03*
Y106976D02*
D03*
Y110126D02*
D03*
Y113276D02*
D03*
Y116425D02*
D03*
Y119575D02*
D03*
Y122724D02*
D03*
Y125874D02*
D03*
Y129024D02*
D03*
Y132173D02*
D03*
D65*
X147244Y144882D02*
D03*
D66*
X148031Y149409D02*
D03*
D67*
X147146Y153937D02*
D03*
D68*
X106201Y145590D02*
D03*
Y155669D02*
D03*
D69*
X140748Y159803D02*
D03*
X136417D02*
D03*
X132087D02*
D03*
X127756D02*
D03*
X110433D02*
D03*
X114764D02*
D03*
X119094D02*
D03*
X123425D02*
D03*
D70*
X114035Y164500D02*
D03*
X110965D02*
D03*
X143035Y141500D02*
D03*
X139964D02*
D03*
X133465Y138000D02*
D03*
X136535D02*
D03*
Y141500D02*
D03*
X133465D02*
D03*
X139964Y138000D02*
D03*
X143035D02*
D03*
X116464Y141500D02*
D03*
X119535D02*
D03*
X103665Y122000D02*
D03*
X106735D02*
D03*
X156535Y133600D02*
D03*
X153464D02*
D03*
X123465Y141500D02*
D03*
X126535D02*
D03*
Y138000D02*
D03*
X123465D02*
D03*
X119535D02*
D03*
X116464D02*
D03*
X106735Y125500D02*
D03*
X103665D02*
D03*
X139464Y164500D02*
D03*
X142535D02*
D03*
X149035D02*
D03*
X145965D02*
D03*
X128235D02*
D03*
X125164D02*
D03*
D71*
X104954Y139331D02*
D03*
Y130669D02*
D03*
X111646Y139331D02*
D03*
Y130669D02*
D03*
D72*
X95100Y95141D02*
D03*
Y100259D02*
D03*
D73*
X156800Y130435D02*
D03*
Y127365D02*
D03*
X153500D02*
D03*
Y130435D02*
D03*
X119200Y95065D02*
D03*
Y98135D02*
D03*
X112900Y113365D02*
D03*
Y116435D02*
D03*
X109700Y113265D02*
D03*
Y116335D02*
D03*
X115900Y94964D02*
D03*
Y98035D02*
D03*
D74*
X112000Y125756D02*
D03*
Y120244D02*
D03*
D75*
X130000Y141772D02*
D03*
Y138228D02*
D03*
X95300Y108672D02*
D03*
Y105128D02*
D03*
D76*
X145000Y158031D02*
D03*
Y161969D02*
D03*
X113469Y148531D02*
D03*
Y152469D02*
D03*
X109531Y148531D02*
D03*
Y152469D02*
D03*
D77*
X102500Y144890D02*
D03*
X112500Y139100D02*
D03*
X131200Y164500D02*
D03*
X134600Y164600D02*
D03*
X128200D02*
D03*
X125600Y165000D02*
D03*
X121700Y163700D02*
D03*
X151500Y141600D02*
D03*
X149100Y158000D02*
D03*
X134300Y139800D02*
D03*
X100000Y108858D02*
D03*
X112300Y116300D02*
D03*
X112700Y113200D02*
D03*
X131300Y149200D02*
D03*
X128900Y137200D02*
D03*
X132200Y134200D02*
D03*
X135400Y148500D02*
D03*
X136200Y144500D02*
D03*
X148500Y138800D02*
D03*
X140000Y141800D02*
D03*
X138000Y152900D02*
D03*
X106100Y97500D02*
D03*
X95300Y109500D02*
D03*
X113500Y163600D02*
D03*
X104700Y130300D02*
D03*
X123500Y142900D02*
D03*
X102500Y151464D02*
D03*
X102900Y163900D02*
D03*
X102850Y160823D02*
D03*
X127600Y159600D02*
D03*
X110516Y156110D02*
D03*
X140000Y148756D02*
D03*
X129900Y144500D02*
D03*
X142200Y164400D02*
D03*
X118000Y163500D02*
D03*
X147800Y159900D02*
D03*
X149000Y162000D02*
D03*
X131465Y152500D02*
D03*
X125535Y145500D02*
D03*
X101200Y99900D02*
D03*
X153500Y127300D02*
D03*
Y130435D02*
D03*
X101200Y104873D02*
D03*
X102300Y94800D02*
D03*
D78*
X118504Y98031D02*
D03*
X139115Y124115D02*
D03*
X140874Y125874D02*
D03*
X116500Y119500D02*
D03*
X122000Y119600D02*
D03*
X117000Y110000D02*
D03*
X129800Y130700D02*
D03*
X125126Y125874D02*
D03*
X137724Y113276D02*
D03*
X106300Y107500D02*
D03*
X122000Y122700D02*
D03*
X125100D02*
D03*
X116036Y121900D02*
D03*
X115900Y98035D02*
D03*
X142500Y121000D02*
D03*
X139800Y134400D02*
D03*
X140874Y132173D02*
D03*
X137700Y132200D02*
D03*
X119626Y152287D02*
D03*
X139483Y105000D02*
D03*
X140874Y113276D02*
D03*
Y110126D02*
D03*
Y106976D02*
D03*
X144024Y129024D02*
D03*
Y106976D02*
D03*
X118827D02*
D03*
X134575Y110126D02*
D03*
X131425Y113276D02*
D03*
Y116425D02*
D03*
X128276D02*
D03*
Y119575D02*
D03*
X134575Y116425D02*
D03*
X137724Y119575D02*
D03*
X128276Y125874D02*
D03*
Y122724D02*
D03*
X149000Y105000D02*
D03*
Y116000D02*
D03*
X142500Y108500D02*
D03*
X137724Y110126D02*
D03*
X133414Y105586D02*
D03*
X149000Y111000D02*
D03*
X145374Y101610D02*
D03*
X149000Y133000D02*
D03*
Y102000D02*
D03*
X142500Y101500D02*
D03*
X145500Y108500D02*
D03*
X149000Y113500D02*
D03*
X118827Y113276D02*
D03*
X136400Y127198D02*
D03*
X144100Y135200D02*
D03*
D79*
X137724Y122724D02*
D03*
X145374Y138504D02*
D03*
X153500Y133500D02*
D03*
X122700Y156800D02*
D03*
X115500Y143900D02*
D03*
X109500D02*
D03*
X125925Y149138D02*
D03*
X124350D02*
D03*
X121201Y152287D02*
D03*
Y150713D02*
D03*
X122775D02*
D03*
Y152287D02*
D03*
X124350D02*
D03*
X128400Y153000D02*
D03*
X117400Y155700D02*
D03*
X117300Y153900D02*
D03*
X126800Y156700D02*
D03*
X128400Y155200D02*
D03*
X119626Y149138D02*
D03*
X119600Y145900D02*
D03*
X122775Y149138D02*
D03*
M02*
