G04 Layer_Physical_Order=6*
G04 Layer_Color=11436288*
%FSLAX25Y25*%
%MOIN*%
G70*
G01*
G75*
%ADD10C,0.00600*%
%ADD18R,0.02205X0.02047*%
%ADD21R,0.02047X0.02205*%
%ADD22R,0.02756X0.02756*%
%ADD23R,0.02165X0.02165*%
%ADD24C,0.01000*%
%ADD25C,0.01200*%
%ADD26C,0.03937*%
%ADD27C,0.01969*%
%ADD28C,0.01400*%
%ADD29C,0.01100*%
%ADD30C,0.01000*%
%ADD37O,0.03537X0.02205*%
%ADD38O,0.02205X0.03537*%
%ADD39O,0.02205X0.03737*%
%ADD40O,0.03737X0.02205*%
%ADD41R,0.02205X0.02165*%
%ADD42R,0.02205X0.03937*%
%ADD43R,0.02165X0.02205*%
%ADD44R,0.03937X0.02205*%
%ADD45R,0.05118X0.02205*%
%ADD46C,0.00906*%
%ADD47R,0.03000X0.05000*%
%ADD48R,0.02362X0.02559*%
%ADD49R,0.02165X0.02165*%
%ADD50R,0.01063X0.02047*%
%ADD51R,0.01417X0.02047*%
%ADD52R,0.02520X0.09409*%
%ADD53R,0.02756X0.00984*%
%ADD54R,0.09370X0.06496*%
%ADD55R,0.00984X0.02756*%
%ADD56R,0.02441X0.02598*%
%ADD57R,0.07087X0.03150*%
%ADD58R,0.05000X0.03000*%
%ADD59R,0.02756X0.02756*%
%ADD60R,0.03150X0.07087*%
D10*
X139400Y127400D02*
X144800D01*
X136200Y124200D02*
X139400Y127400D01*
X114102Y121898D02*
X116500Y119500D01*
X111996Y121898D02*
X114102D01*
X116907Y124693D02*
X122000Y119600D01*
X111996Y124693D02*
X116907D01*
X117000Y110000D02*
Y115974D01*
X114764Y118209D02*
X117000Y115974D01*
X111996Y119102D02*
X112889Y118209D01*
X114764D01*
X138668Y165900D02*
X146196D01*
X148159Y163937D01*
X148642D01*
X125126Y125874D02*
Y126026D01*
X129800Y130700D01*
X142500Y118785D02*
X145613Y121898D01*
X148201D01*
X139524Y119933D02*
X144284Y124693D01*
X142500Y108500D02*
Y118785D01*
X139524Y108326D02*
Y119933D01*
X144284Y124693D02*
X148201D01*
X144800Y127400D02*
X145432Y128032D01*
X136200Y114751D02*
Y124200D01*
X134724Y113276D02*
X136200Y114751D01*
X122775Y154927D02*
X124549Y156700D01*
X122775Y153862D02*
Y154927D01*
X124549Y156700D02*
X126800D01*
X139483Y102796D02*
Y105000D01*
X139524Y108326D02*
X140874Y106976D01*
X114265Y105264D02*
X115976Y106976D01*
X118827D01*
X111110Y105126D02*
Y105264D01*
X114265D01*
X111996Y107921D02*
Y108326D01*
X132775D02*
X134575Y110126D01*
X111996Y108326D02*
X132775D01*
X144024Y106976D02*
Y116332D01*
X146794Y119102D01*
X148004D01*
X136988Y102496D02*
Y104012D01*
X135414Y105586D02*
X136988Y104012D01*
X133414Y105586D02*
X135414D01*
X131425Y113276D02*
X134724D01*
X148948Y135735D02*
X149087Y135874D01*
X146235Y135735D02*
X148948D01*
X145500Y108500D02*
X147622D01*
X137964Y156000D02*
X138000Y156035D01*
X134772Y156000D02*
X137964D01*
X138000Y156035D02*
X138186D01*
X142222Y152000D01*
X144228D01*
X102500Y148035D02*
Y151464D01*
X140000Y148756D02*
X141516D01*
X144500Y145772D01*
X148000D01*
X125925Y150713D02*
X129677D01*
X131465Y152500D01*
X117338Y153862D02*
X119626D01*
X117500Y155600D02*
X119660D01*
X121201Y153862D02*
Y154059D01*
X119660Y155600D02*
X121201Y154059D01*
X124350Y153862D02*
Y154250D01*
X125300Y155200D01*
X128400D01*
X125925Y153862D02*
X127538D01*
X128400Y153000D01*
X121201Y147501D02*
Y149138D01*
X119600Y145900D02*
X121201Y147501D01*
X142579Y130468D02*
X144024Y129024D01*
X142579Y130468D02*
Y138504D01*
X145432Y128032D02*
Y134623D01*
X145450Y134641D01*
Y134950D01*
X146235Y135735D01*
D18*
X125535Y145500D02*
D03*
X122465D02*
D03*
X134535Y152500D02*
D03*
X131465D02*
D03*
X119864Y158500D02*
D03*
X122935D02*
D03*
D21*
X102500Y154535D02*
D03*
Y151464D02*
D03*
Y144965D02*
D03*
Y148035D02*
D03*
X138000Y156035D02*
D03*
Y152964D02*
D03*
D22*
X140000Y143244D02*
D03*
Y148756D02*
D03*
D23*
X148000Y142228D02*
D03*
Y145772D02*
D03*
X144500Y142228D02*
D03*
Y145772D02*
D03*
D24*
X102500Y144890D02*
X107563D01*
X110800Y140320D02*
X113469Y142988D01*
X110800Y139417D02*
Y140320D01*
X105902Y134520D02*
X110800Y139417D01*
X105000Y134520D02*
X105902D01*
X102500Y142650D02*
Y144890D01*
Y142650D02*
X105000Y140150D01*
X128400Y134200D02*
X132200D01*
X126500Y136100D02*
X128400Y134200D01*
X126500Y136100D02*
Y137597D01*
X125700Y138397D02*
X126500Y137597D01*
X139783Y138504D02*
Y143027D01*
X122700Y156800D02*
Y158265D01*
X117427Y158100D02*
X119465D01*
X115437Y156110D02*
X117427Y158100D01*
X115437Y154437D02*
Y156110D01*
X111500Y150500D02*
X115437Y154437D01*
X141358Y160000D02*
X145000D01*
X148642Y152870D02*
Y156063D01*
X143326Y154295D02*
X147216D01*
X141558Y156063D02*
X143326Y154295D01*
X147216D02*
X148642Y152870D01*
X142579Y140307D02*
X144500Y142228D01*
X145374Y139390D02*
X148000Y142016D01*
X136988Y138504D02*
Y141768D01*
X135256Y143500D02*
X136988Y141768D01*
X135000Y152964D02*
X138000D01*
X113469Y142988D02*
Y144890D01*
X102850Y160823D02*
X107563Y156110D01*
X102850Y154886D02*
Y160823D01*
X113469Y156110D02*
Y157681D01*
X109150Y162000D02*
X113469Y157681D01*
X141358Y158031D02*
X145000D01*
X138201Y161969D02*
X141358D01*
X132500Y157272D02*
Y160571D01*
X131228Y156000D02*
X132500Y157272D01*
X96000Y99600D02*
X100900D01*
X101200Y99900D01*
Y101527D01*
X148201Y127488D02*
X153388D01*
X148201Y130283D02*
X153048D01*
Y129983D02*
X153500Y130435D01*
X96000Y95100D02*
X100827D01*
X96000Y104100D02*
X100427D01*
D25*
X112500Y139100D02*
X114030D01*
X114130Y139000D01*
X111996Y130283D02*
X115065Y133352D01*
X111996Y127488D02*
Y130283D01*
X115065Y133352D02*
Y138065D01*
X114626Y138504D02*
X115065Y138065D01*
X122465Y145500D02*
X123333Y144631D01*
Y143067D02*
Y144631D01*
Y143067D02*
X123500Y142900D01*
Y138992D02*
Y142900D01*
D26*
X155118Y139370D02*
D03*
X147244Y96063D02*
D03*
X103937Y115748D02*
D03*
D27*
X145000Y158031D02*
D03*
Y161969D02*
D03*
X113469Y148531D02*
D03*
Y152469D02*
D03*
X109531Y148531D02*
D03*
Y152469D02*
D03*
D28*
X102500Y144890D02*
D03*
X112500Y139100D02*
D03*
X131200Y164500D02*
D03*
X134600Y164600D02*
D03*
X128200D02*
D03*
X125600Y165000D02*
D03*
X121700Y163700D02*
D03*
X151500Y141600D02*
D03*
X149100Y158000D02*
D03*
X134300Y139800D02*
D03*
X100000Y108858D02*
D03*
X112300Y116300D02*
D03*
X112700Y113200D02*
D03*
X131300Y149200D02*
D03*
X128900Y137200D02*
D03*
X132200Y134200D02*
D03*
X135400Y148500D02*
D03*
X136200Y144500D02*
D03*
X148500Y138800D02*
D03*
X140000Y141800D02*
D03*
X138000Y152900D02*
D03*
X106100Y97500D02*
D03*
X95300Y109500D02*
D03*
X113500Y163600D02*
D03*
X104700Y130300D02*
D03*
X123500Y142900D02*
D03*
X102500Y151464D02*
D03*
X102900Y163900D02*
D03*
X102850Y160823D02*
D03*
X127600Y159600D02*
D03*
X110516Y156110D02*
D03*
X140000Y148756D02*
D03*
X129900Y144500D02*
D03*
X142200Y164400D02*
D03*
X118000Y163500D02*
D03*
X147800Y159900D02*
D03*
X149000Y162000D02*
D03*
X131465Y152500D02*
D03*
X125535Y145500D02*
D03*
X101200Y99900D02*
D03*
X153500Y127300D02*
D03*
Y130435D02*
D03*
X101200Y104873D02*
D03*
X102300Y94800D02*
D03*
D29*
X118504Y98031D02*
D03*
X139115Y124115D02*
D03*
X140874Y125874D02*
D03*
X116500Y119500D02*
D03*
X122000Y119600D02*
D03*
X117000Y110000D02*
D03*
X129800Y130700D02*
D03*
X125126Y125874D02*
D03*
X137724Y113276D02*
D03*
X106300Y107500D02*
D03*
X122000Y122700D02*
D03*
X125100D02*
D03*
X116036Y121900D02*
D03*
X115900Y98035D02*
D03*
X142500Y121000D02*
D03*
X139800Y134400D02*
D03*
X140874Y132173D02*
D03*
X137700Y132200D02*
D03*
X119626Y152287D02*
D03*
X139483Y105000D02*
D03*
X140874Y113276D02*
D03*
Y110126D02*
D03*
Y106976D02*
D03*
X144024Y129024D02*
D03*
Y106976D02*
D03*
X118827D02*
D03*
X134575Y110126D02*
D03*
X131425Y113276D02*
D03*
Y116425D02*
D03*
X128276D02*
D03*
Y119575D02*
D03*
X134575Y116425D02*
D03*
X137724Y119575D02*
D03*
X128276Y125874D02*
D03*
Y122724D02*
D03*
X149000Y105000D02*
D03*
Y116000D02*
D03*
X142500Y108500D02*
D03*
X137724Y110126D02*
D03*
X133414Y105586D02*
D03*
X149000Y111000D02*
D03*
X145374Y101610D02*
D03*
X149000Y133000D02*
D03*
Y102000D02*
D03*
X142500Y101500D02*
D03*
X145500Y108500D02*
D03*
X149000Y113500D02*
D03*
X118827Y113276D02*
D03*
X136400Y127198D02*
D03*
X144100Y135200D02*
D03*
D30*
X137724Y122724D02*
D03*
X145374Y138504D02*
D03*
X153500Y133500D02*
D03*
X122700Y156800D02*
D03*
X115500Y143900D02*
D03*
X109500D02*
D03*
X125925Y149138D02*
D03*
X124350D02*
D03*
X121201Y152287D02*
D03*
Y150713D02*
D03*
X122775D02*
D03*
Y152287D02*
D03*
X124350D02*
D03*
X128400Y153000D02*
D03*
X117400Y155700D02*
D03*
X117300Y153900D02*
D03*
X126800Y156700D02*
D03*
X128400Y155200D02*
D03*
X119626Y149138D02*
D03*
X119600Y145900D02*
D03*
X122775Y149138D02*
D03*
D37*
X111996Y135874D02*
D03*
Y105126D02*
D03*
D38*
X114626Y102496D02*
D03*
Y138504D02*
D03*
D39*
X145374Y102496D02*
D03*
Y138504D02*
D03*
D40*
X148201Y135874D02*
D03*
Y105126D02*
D03*
D41*
X145374Y101610D02*
D03*
X114626D02*
D03*
Y139390D02*
D03*
X145374D02*
D03*
D42*
X142579Y102496D02*
D03*
X139783D02*
D03*
X136988D02*
D03*
X134193D02*
D03*
X131398D02*
D03*
X128602D02*
D03*
X125807D02*
D03*
X123012D02*
D03*
X120217D02*
D03*
X117421D02*
D03*
Y138504D02*
D03*
X120217D02*
D03*
X123012D02*
D03*
X125807D02*
D03*
X128602D02*
D03*
X131398D02*
D03*
X134193D02*
D03*
X136988D02*
D03*
X139783D02*
D03*
X142579D02*
D03*
D43*
X111110Y105126D02*
D03*
Y135874D02*
D03*
X149087D02*
D03*
Y105126D02*
D03*
D44*
X111996Y107921D02*
D03*
Y110716D02*
D03*
Y113512D02*
D03*
Y116307D02*
D03*
Y119102D02*
D03*
Y121898D02*
D03*
Y124693D02*
D03*
Y127488D02*
D03*
Y130283D02*
D03*
Y133079D02*
D03*
X148201D02*
D03*
Y130283D02*
D03*
Y127488D02*
D03*
Y124693D02*
D03*
Y121898D02*
D03*
Y116307D02*
D03*
Y113512D02*
D03*
Y110716D02*
D03*
Y107921D02*
D03*
D45*
X147610Y119102D02*
D03*
D46*
X119626Y153862D02*
D03*
X121201D02*
D03*
X122775D02*
D03*
X124350D02*
D03*
X125925D02*
D03*
X119626Y152287D02*
D03*
X121201D02*
D03*
X122775D02*
D03*
X124350D02*
D03*
X125925D02*
D03*
X119626Y150713D02*
D03*
X121201D02*
D03*
X122775D02*
D03*
X124350D02*
D03*
X125925D02*
D03*
X119626Y149138D02*
D03*
X121201D02*
D03*
X122775D02*
D03*
X124350D02*
D03*
X125925D02*
D03*
D47*
X118000Y163500D02*
D03*
X122500D02*
D03*
X113500D02*
D03*
D48*
X101200Y94727D02*
D03*
Y98073D02*
D03*
Y104873D02*
D03*
Y101527D02*
D03*
D49*
X134772Y156000D02*
D03*
X131228D02*
D03*
X144228Y152000D02*
D03*
X147772D02*
D03*
D50*
X130925Y164429D02*
D03*
X134075D02*
D03*
D51*
X132500Y160571D02*
D03*
D52*
X145000Y160000D02*
D03*
D53*
X141358Y156063D02*
D03*
Y158031D02*
D03*
Y160000D02*
D03*
Y161969D02*
D03*
Y163937D02*
D03*
X148642Y156063D02*
D03*
Y158031D02*
D03*
Y160000D02*
D03*
Y161969D02*
D03*
Y163937D02*
D03*
D54*
X111500Y150500D02*
D03*
D55*
X115437Y144890D02*
D03*
X113469D02*
D03*
X111500D02*
D03*
X109531D02*
D03*
X107563D02*
D03*
X115437Y156110D02*
D03*
X113469D02*
D03*
X111500D02*
D03*
X109531D02*
D03*
X107563D02*
D03*
D56*
X137500Y161268D02*
D03*
Y164732D02*
D03*
D57*
X105000Y133850D02*
D03*
Y140150D02*
D03*
D58*
X96000Y99600D02*
D03*
Y95100D02*
D03*
Y104100D02*
D03*
Y108600D02*
D03*
D59*
X135256Y143500D02*
D03*
X129744D02*
D03*
X135256Y148500D02*
D03*
X129744D02*
D03*
D60*
X109150Y162000D02*
D03*
X102850D02*
D03*
M02*
