G04 Layer_Color=16764230*
%FSLAX25Y25*%
%MOIN*%
G70*
G01*
G75*
%ADD10C,0.00400*%
D10*
X143999Y118000D02*
X142333D01*
X142000Y118333D01*
Y119000D01*
X142333Y119333D01*
X143999D01*
X142000Y119999D02*
Y120666D01*
Y120333D01*
X143999D01*
X143666Y119999D01*
X126276Y150999D02*
Y149333D01*
X125942Y149000D01*
X125276D01*
X124943Y149333D01*
Y150999D01*
X122943D02*
X124276D01*
Y150000D01*
X123610Y150333D01*
X123276D01*
X122943Y150000D01*
Y149333D01*
X123276Y149000D01*
X123943D01*
X124276Y149333D01*
X118467Y168999D02*
X119133D01*
X118800D01*
Y167333D01*
X119133Y167000D01*
X119467D01*
X119800Y167333D01*
X117801D02*
X117467Y167000D01*
X116801D01*
X116468Y167333D01*
Y168666D01*
X116801Y168999D01*
X117467D01*
X117801Y168666D01*
Y168333D01*
X117467Y168000D01*
X116468D01*
X100700Y94400D02*
X102699D01*
Y95400D01*
X102366Y95733D01*
X101700D01*
X101366Y95400D01*
Y94400D01*
Y95066D02*
X100700Y95733D01*
Y97399D02*
X102699D01*
X101700Y96399D01*
Y97732D01*
X132000Y157000D02*
Y155001D01*
X133000D01*
X133333Y155334D01*
Y156000D01*
X133000Y156333D01*
X132000D01*
X132666D02*
X133333Y157000D01*
X133999Y155334D02*
X134333Y155001D01*
X134999D01*
X135332Y155334D01*
Y155667D01*
X134999Y156000D01*
X135332Y156333D01*
Y156667D01*
X134999Y157000D01*
X134333D01*
X133999Y156667D01*
Y156333D01*
X134333Y156000D01*
X133999Y155667D01*
Y155334D01*
X134333Y156000D02*
X134999D01*
X103166Y151833D02*
X103499Y151500D01*
Y150833D01*
X103166Y150500D01*
X101833D01*
X101500Y150833D01*
Y151500D01*
X101833Y151833D01*
X101500Y153832D02*
Y152499D01*
X102833Y153832D01*
X103166D01*
X103499Y153499D01*
Y152832D01*
X103166Y152499D01*
Y154499D02*
X103499Y154832D01*
Y155498D01*
X103166Y155832D01*
X102833D01*
X102500Y155498D01*
Y155165D01*
Y155498D01*
X102166Y155832D01*
X101833D01*
X101500Y155498D01*
Y154832D01*
X101833Y154499D01*
X139001Y147500D02*
X141000D01*
Y146167D01*
Y144168D02*
Y145501D01*
X139667Y144168D01*
X139334D01*
X139001Y144501D01*
Y145167D01*
X139334Y145501D01*
X130667Y162167D02*
X129334D01*
X129001Y162500D01*
Y163167D01*
X129334Y163500D01*
X130667D01*
X131000Y163167D01*
Y162500D01*
X130333Y162833D02*
X131000Y162167D01*
Y162500D02*
X130667Y162167D01*
X131000Y161501D02*
Y160834D01*
Y161167D01*
X129001D01*
X129334Y161501D01*
X150000Y165499D02*
Y163833D01*
X149667Y163500D01*
X149000D01*
X148667Y163833D01*
Y165499D01*
X147001Y163500D02*
Y165499D01*
X148001Y164500D01*
X146668D01*
X107999Y153000D02*
X106333D01*
X106000Y153333D01*
Y154000D01*
X106333Y154333D01*
X107999D01*
X107666Y154999D02*
X107999Y155333D01*
Y155999D01*
X107666Y156332D01*
X107333D01*
X107000Y155999D01*
Y155666D01*
Y155999D01*
X106666Y156332D01*
X106333D01*
X106000Y155999D01*
Y155333D01*
X106333Y154999D01*
X136834Y163667D02*
X136501Y164000D01*
Y164667D01*
X136834Y165000D01*
X138167D01*
X138500Y164667D01*
Y164000D01*
X138167Y163667D01*
X138500Y161668D02*
Y163001D01*
X137167Y161668D01*
X136834D01*
X136501Y162001D01*
Y162667D01*
X136834Y163001D01*
X136501Y159668D02*
X136834Y160335D01*
X137500Y161001D01*
X138167D01*
X138500Y160668D01*
Y160002D01*
X138167Y159668D01*
X137833D01*
X137500Y160002D01*
Y161001D01*
X102000Y136001D02*
Y138000D01*
X103333D01*
X105332Y136001D02*
X104666Y136334D01*
X103999Y137000D01*
Y137667D01*
X104332Y138000D01*
X104999D01*
X105332Y137667D01*
Y137334D01*
X104999Y137000D01*
X103999D01*
X125167Y146166D02*
X125500Y146499D01*
X126167D01*
X126500Y146166D01*
Y144833D01*
X126167Y144500D01*
X125500D01*
X125167Y144833D01*
X124501Y144500D02*
X123834D01*
X124167D01*
Y146499D01*
X124501Y146166D01*
X122835D02*
X122501Y146499D01*
X121835D01*
X121502Y146166D01*
Y145833D01*
X121835Y145500D01*
X121502Y145166D01*
Y144833D01*
X121835Y144500D01*
X122501D01*
X122835Y144833D01*
Y145166D01*
X122501Y145500D01*
X122835Y145833D01*
Y146166D01*
X122501Y145500D02*
X121835D01*
X103166Y145333D02*
X103499Y145000D01*
Y144333D01*
X103166Y144000D01*
X101833D01*
X101500Y144333D01*
Y145000D01*
X101833Y145333D01*
X101500Y147332D02*
Y145999D01*
X102833Y147332D01*
X103166D01*
X103499Y146999D01*
Y146333D01*
X103166Y145999D01*
X101500Y149331D02*
Y147999D01*
X102833Y149331D01*
X103166D01*
X103499Y148998D01*
Y148332D01*
X103166Y147999D01*
X138666Y153833D02*
X138999Y153500D01*
Y152833D01*
X138666Y152500D01*
X137333D01*
X137000Y152833D01*
Y153500D01*
X137333Y153833D01*
X137000Y155832D02*
Y154499D01*
X138333Y155832D01*
X138666D01*
X138999Y155499D01*
Y154832D01*
X138666Y154499D01*
X138999Y156499D02*
Y157832D01*
X138666D01*
X137333Y156499D01*
X137000D01*
X134167Y153666D02*
X134500Y153999D01*
X135167D01*
X135500Y153666D01*
Y152333D01*
X135167Y152000D01*
X134500D01*
X134167Y152333D01*
X132168Y152000D02*
X133501D01*
X132168Y153333D01*
Y153666D01*
X132501Y153999D01*
X133167D01*
X133501Y153666D01*
X131501D02*
X131168Y153999D01*
X130502D01*
X130168Y153666D01*
Y153333D01*
X130502Y153000D01*
X130168Y152666D01*
Y152333D01*
X130502Y152000D01*
X131168D01*
X131501Y152333D01*
Y152666D01*
X131168Y153000D01*
X131501Y153333D01*
Y153666D01*
X131168Y153000D02*
X130502D01*
X120233Y157334D02*
X119900Y157001D01*
X119233D01*
X118900Y157334D01*
Y158667D01*
X119233Y159000D01*
X119900D01*
X120233Y158667D01*
X122232Y159000D02*
X120899D01*
X122232Y157667D01*
Y157334D01*
X121899Y157001D01*
X121232D01*
X120899Y157334D01*
X122899Y158667D02*
X123232Y159000D01*
X123898D01*
X124232Y158667D01*
Y157334D01*
X123898Y157001D01*
X123232D01*
X122899Y157334D01*
Y157667D01*
X123232Y158000D01*
X124232D01*
X92768Y99976D02*
Y100642D01*
Y100309D01*
X94434D01*
X94768Y100642D01*
Y100975D01*
X94434Y101309D01*
X94768Y97976D02*
Y99309D01*
X93435Y97976D01*
X93102D01*
X92768Y98310D01*
Y98976D01*
X93102Y99309D01*
X92804Y95436D02*
Y96103D01*
Y95770D01*
X94470D01*
X94803Y96103D01*
Y96436D01*
X94470Y96769D01*
X93137Y94770D02*
X92804Y94437D01*
Y93770D01*
X93137Y93437D01*
X93470D01*
X93803Y93770D01*
Y94103D01*
Y93770D01*
X94137Y93437D01*
X94470D01*
X94803Y93770D01*
Y94437D01*
X94470Y94770D01*
X92304Y104318D02*
Y104985D01*
Y104651D01*
X93970D01*
X94303Y104985D01*
Y105318D01*
X93970Y105651D01*
X94303Y102652D02*
X92304D01*
X93303Y103652D01*
Y102319D01*
X92304Y109200D02*
Y109867D01*
Y109533D01*
X93970D01*
X94303Y109867D01*
Y110200D01*
X93970Y110533D01*
X92304Y107201D02*
Y108534D01*
X93303D01*
X92970Y107867D01*
Y107534D01*
X93303Y107201D01*
X93970D01*
X94303Y107534D01*
Y108200D01*
X93970Y108534D01*
X123167Y168899D02*
X123834D01*
X123500D01*
Y167233D01*
X123834Y166900D01*
X124167D01*
X124500Y167233D01*
X121168Y168899D02*
X121834Y168566D01*
X122501Y167900D01*
Y167233D01*
X122167Y166900D01*
X121501D01*
X121168Y167233D01*
Y167566D01*
X121501Y167900D01*
X122501D01*
X113967Y168999D02*
X114634D01*
X114300D01*
Y167333D01*
X114634Y167000D01*
X114967D01*
X115300Y167333D01*
X113301Y168666D02*
X112967Y168999D01*
X112301D01*
X111968Y168666D01*
Y168333D01*
X112301Y168000D01*
X111968Y167666D01*
Y167333D01*
X112301Y167000D01*
X112967D01*
X113301Y167333D01*
Y167666D01*
X112967Y168000D01*
X113301Y168333D01*
Y168666D01*
X112967Y168000D02*
X112301D01*
X133499Y142500D02*
X131500D01*
Y143833D01*
Y144499D02*
Y145166D01*
Y144833D01*
X133499D01*
X133166Y144499D01*
X130858Y147190D02*
Y149189D01*
X132191D01*
X133857D02*
Y147190D01*
X132858Y148189D01*
X134190D01*
X102200Y104700D02*
X100201D01*
Y103700D01*
X100534Y103367D01*
X101200D01*
X101533Y103700D01*
Y104700D01*
Y104034D02*
X102200Y103367D01*
X100534Y102701D02*
X100201Y102367D01*
Y101701D01*
X100534Y101368D01*
X100867D01*
X101200Y101701D01*
Y102034D01*
Y101701D01*
X101533Y101368D01*
X101867D01*
X102200Y101701D01*
Y102367D01*
X101867Y102701D01*
X147338Y142697D02*
X149338D01*
Y143696D01*
X149005Y144030D01*
X148338D01*
X148005Y143696D01*
Y142697D01*
Y143363D02*
X147338Y144030D01*
X149338Y146029D02*
Y144696D01*
X148338D01*
X148671Y145363D01*
Y145696D01*
X148338Y146029D01*
X147672D01*
X147338Y145696D01*
Y145029D01*
X147672Y144696D01*
X143402Y142925D02*
X145401D01*
Y143925D01*
X145068Y144258D01*
X144401D01*
X144068Y143925D01*
Y142925D01*
Y143592D02*
X143402Y144258D01*
X145401Y146257D02*
X145068Y145591D01*
X144401Y144924D01*
X143735D01*
X143402Y145258D01*
Y145924D01*
X143735Y146257D01*
X144068D01*
X144401Y145924D01*
Y144924D01*
X145000Y153000D02*
Y151001D01*
X146000D01*
X146333Y151334D01*
Y152000D01*
X146000Y152333D01*
X145000D01*
X145666D02*
X146333Y153000D01*
X146999Y151001D02*
X148332D01*
Y151334D01*
X146999Y152667D01*
Y153000D01*
X106999Y160500D02*
X105000D01*
Y161833D01*
X106999Y163832D02*
Y162499D01*
X106000D01*
X106333Y163166D01*
Y163499D01*
X106000Y163832D01*
X105333D01*
X105000Y163499D01*
Y162832D01*
X105333Y162499D01*
M02*
