G04 Layer_Physical_Order=1*
G04 Layer_Color=25308*
%FSLAX25Y25*%
%MOIN*%
G70*
G01*
G75*
%ADD10C,0.00600*%
%ADD11R,0.02165X0.02165*%
%ADD12R,0.02756X0.02756*%
%ADD13R,0.02205X0.02047*%
%ADD14R,0.02047X0.02205*%
%ADD15R,0.03543X0.03347*%
%ADD16R,0.04724X0.05512*%
%ADD17R,0.02756X0.03937*%
%ADD18R,0.04528X0.04724*%
%ADD19R,0.05709X0.04724*%
%ADD20R,0.03937X0.02756*%
%ADD21R,0.05512X0.03543*%
%ADD22C,0.01181*%
%ADD23R,0.01378X0.03150*%
%ADD24C,0.01200*%
%ADD25C,0.01000*%
%ADD26C,0.03937*%
%ADD27C,0.01100*%
%ADD28C,0.01400*%
%ADD29C,0.01000*%
%ADD30C,0.01969*%
D10*
X117126Y110126D02*
G03*
X117000Y110000I0J-126D01*
G01*
X144100Y134600D02*
X145414Y133286D01*
X144100Y134600D02*
Y135200D01*
X143925Y119575D02*
X144024D01*
X139147Y102100D02*
X140874Y103827D01*
X137485Y102100D02*
X139147D01*
X136200Y103385D02*
X137485Y102100D01*
X136400Y127198D02*
X137724Y125874D01*
X129400Y154000D02*
X135092D01*
X128400Y153000D02*
X129400Y154000D01*
X132000Y155200D02*
X136417Y159617D01*
X128400Y155200D02*
X132000D01*
X149035Y162035D02*
Y164500D01*
X149000Y162000D02*
X149035Y162035D01*
X136417Y159617D02*
Y159803D01*
X132087Y159287D02*
Y159803D01*
X129500Y156700D02*
X132087Y159287D01*
X126800Y156700D02*
X129500D01*
X119150Y135000D02*
X121976Y132173D01*
X119535Y135386D02*
Y138000D01*
X107535Y126858D02*
X111346Y130669D01*
X107535Y125500D02*
Y126858D01*
X116189Y153900D02*
X117300D01*
X110433Y159656D02*
X116189Y153900D01*
X110433Y159656D02*
Y159803D01*
X117400Y155700D02*
Y156551D01*
X114764Y159187D02*
X117400Y156551D01*
X114764Y159187D02*
Y159803D01*
X147173Y103827D02*
X149000Y102000D01*
X147173Y103827D02*
Y103827D01*
X126602Y105500D02*
X133414D01*
X142500Y105350D02*
Y108500D01*
Y105350D02*
X144024Y103827D01*
X147666Y114666D02*
X149000Y116000D01*
X146597Y114666D02*
X147666D01*
X145783Y113851D02*
X146597Y114666D01*
X145783Y111885D02*
Y113851D01*
X144024Y110126D02*
X145783Y111885D01*
X139483Y113851D02*
X140298Y114666D01*
X142264D01*
X144024Y116425D01*
X125126Y106976D02*
X126602Y105500D01*
X149000Y105000D02*
Y108299D01*
X147173Y110126D02*
X149000Y108299D01*
X104654Y139331D02*
X108984Y135000D01*
X119150D01*
X112850Y132173D02*
X118827D01*
X139483Y105000D02*
Y113851D01*
X136200Y103385D02*
Y120017D01*
X137517Y121334D01*
X121272Y152359D02*
Y157650D01*
X123425Y159803D01*
X141797Y134400D02*
X144024Y132173D01*
X139800Y134400D02*
X141797D01*
X142500Y121000D02*
X143925Y119575D01*
X95100Y100259D02*
Y106128D01*
X98511Y97511D02*
Y99811D01*
X96141Y95141D02*
X98511Y97511D01*
X95100Y95141D02*
X96141D01*
X112000Y125756D02*
X113056D01*
X116874Y125874D02*
X118827D01*
X109700Y117944D02*
X112000Y120244D01*
X109700Y116335D02*
Y117944D01*
X106735Y122000D02*
X110491Y125756D01*
X112000D01*
X107200Y111900D02*
X110143Y108957D01*
X111811D01*
X110869Y123000D02*
X114000D01*
X116874Y125874D01*
X109500Y121631D02*
X110869Y123000D01*
X107200Y111900D02*
Y117900D01*
X109500Y120200D01*
Y121631D01*
X113656Y121900D02*
X116036D01*
X112000Y120244D02*
X113656Y121900D01*
X116036D02*
X118536Y124400D01*
X123652D01*
X125126Y125874D01*
X134575Y122724D02*
Y125874D01*
X133049Y127400D02*
X134575Y125874D01*
Y113276D02*
Y113425D01*
X133100Y114900D02*
X134575Y113425D01*
X124500Y114900D02*
X133100D01*
X123500Y113900D02*
X124500Y114900D01*
X98511Y99811D02*
X106200Y107500D01*
X112900Y116435D02*
X116870D01*
X118251Y117816D01*
X123735D01*
X125126Y116425D01*
X123500Y106165D02*
Y113900D01*
X115900Y98035D02*
Y98565D01*
X122835Y105500D02*
X123500Y106165D01*
X115900Y98565D02*
X120300Y102965D01*
Y104600D01*
X121200Y105500D01*
X122835D01*
X129666Y117816D02*
X131425Y119575D01*
X134575D01*
X125126Y116425D02*
X126516Y117816D01*
X129666D01*
X123535Y145500D02*
X125535D01*
X119535Y141500D02*
X123535Y145500D01*
X121438Y135862D02*
Y139355D01*
Y135862D02*
X123300Y134000D01*
X119293Y141500D02*
X119535D01*
X119293D02*
X121438Y139355D01*
X113056Y125756D02*
X117900Y130600D01*
X123550D01*
X125126Y129024D01*
X123300Y134000D02*
X125800D01*
X126700Y133100D01*
Y127500D02*
Y133100D01*
X123602Y127500D02*
X126700D01*
X121976Y125874D02*
X123602Y127500D01*
X126700D02*
X129799D01*
X131425Y125874D01*
X133049Y127400D02*
Y129367D01*
X131715Y130700D02*
X133049Y129367D01*
X126535Y135880D02*
X129666Y132749D01*
X126535Y135880D02*
Y138000D01*
X129666Y130700D02*
Y132749D01*
Y130700D02*
X129800D01*
X131715D01*
X135092Y154000D02*
X140748Y159656D01*
Y159803D01*
X117126Y110126D02*
X118827D01*
X116500Y119500D02*
X118752D01*
X140874Y116425D02*
X142549Y118100D01*
X147665D01*
X149165Y119600D01*
Y131256D01*
X150350Y132441D01*
Y138850D01*
X151500Y140000D01*
Y141600D01*
X137517Y121334D02*
X138300D01*
X139115Y122148D01*
Y124115D01*
X140874Y122724D02*
X142057D01*
X143448Y124115D01*
X144231D01*
X145414Y125298D01*
Y133286D01*
D11*
X95300Y105128D02*
D03*
Y108672D02*
D03*
X130000Y138228D02*
D03*
Y141772D02*
D03*
D12*
X112000Y120244D02*
D03*
Y125756D02*
D03*
D13*
X125164Y164500D02*
D03*
X128235D02*
D03*
X145965D02*
D03*
X149035D02*
D03*
X142535D02*
D03*
X139464D02*
D03*
X103665Y125500D02*
D03*
X106735D02*
D03*
X116464Y138000D02*
D03*
X119535D02*
D03*
X123465D02*
D03*
X126535D02*
D03*
Y141500D02*
D03*
X123465D02*
D03*
X153464Y133600D02*
D03*
X156535D02*
D03*
X106735Y122000D02*
D03*
X103665D02*
D03*
X119535Y141500D02*
D03*
X116464D02*
D03*
X143035Y138000D02*
D03*
X139964D02*
D03*
X133465Y141500D02*
D03*
X136535D02*
D03*
Y138000D02*
D03*
X133465D02*
D03*
X139964Y141500D02*
D03*
X143035D02*
D03*
X110965Y164500D02*
D03*
X114035D02*
D03*
D14*
X115900Y98035D02*
D03*
Y94964D02*
D03*
X109700Y116335D02*
D03*
Y113265D02*
D03*
X112900Y116435D02*
D03*
Y113365D02*
D03*
X119200Y98135D02*
D03*
Y95065D02*
D03*
X153500Y130435D02*
D03*
Y127365D02*
D03*
X156800D02*
D03*
Y130435D02*
D03*
D15*
X95100Y100259D02*
D03*
Y95141D02*
D03*
D16*
X111646Y130669D02*
D03*
Y139331D02*
D03*
X104954Y130669D02*
D03*
Y139331D02*
D03*
D17*
X123425Y159803D02*
D03*
X119094D02*
D03*
X114764D02*
D03*
X110433D02*
D03*
X127756D02*
D03*
X132087D02*
D03*
X136417D02*
D03*
X140748D02*
D03*
D18*
X106201Y155669D02*
D03*
Y145590D02*
D03*
D19*
X147146Y153937D02*
D03*
D20*
X148031Y149409D02*
D03*
D21*
X147244Y144882D02*
D03*
D22*
X118827Y132173D02*
D03*
Y129024D02*
D03*
Y125874D02*
D03*
Y122724D02*
D03*
Y119575D02*
D03*
Y116425D02*
D03*
Y113276D02*
D03*
Y110126D02*
D03*
Y106976D02*
D03*
Y103827D02*
D03*
X121976Y132173D02*
D03*
Y129024D02*
D03*
Y125874D02*
D03*
Y122724D02*
D03*
Y119575D02*
D03*
Y116425D02*
D03*
Y113276D02*
D03*
Y110126D02*
D03*
Y106976D02*
D03*
Y103827D02*
D03*
X125126Y132173D02*
D03*
Y129024D02*
D03*
Y125874D02*
D03*
Y122724D02*
D03*
Y119575D02*
D03*
Y116425D02*
D03*
Y113276D02*
D03*
Y110126D02*
D03*
Y106976D02*
D03*
Y103827D02*
D03*
X128276Y132173D02*
D03*
Y129024D02*
D03*
Y125874D02*
D03*
Y122724D02*
D03*
Y119575D02*
D03*
Y116425D02*
D03*
Y113276D02*
D03*
Y110126D02*
D03*
Y106976D02*
D03*
Y103827D02*
D03*
X131425Y132173D02*
D03*
Y129024D02*
D03*
Y125874D02*
D03*
Y122724D02*
D03*
Y119575D02*
D03*
Y116425D02*
D03*
Y113276D02*
D03*
Y110126D02*
D03*
Y106976D02*
D03*
Y103827D02*
D03*
X134575Y132173D02*
D03*
Y129024D02*
D03*
Y125874D02*
D03*
Y122724D02*
D03*
Y119575D02*
D03*
Y116425D02*
D03*
Y113276D02*
D03*
Y110126D02*
D03*
Y106976D02*
D03*
Y103827D02*
D03*
X137724Y132173D02*
D03*
Y129024D02*
D03*
Y125874D02*
D03*
Y122724D02*
D03*
Y119575D02*
D03*
Y116425D02*
D03*
Y113276D02*
D03*
Y110126D02*
D03*
Y106976D02*
D03*
Y103827D02*
D03*
X140874Y132173D02*
D03*
Y129024D02*
D03*
Y125874D02*
D03*
Y122724D02*
D03*
Y119575D02*
D03*
Y116425D02*
D03*
Y113276D02*
D03*
Y110126D02*
D03*
Y106976D02*
D03*
Y103827D02*
D03*
X144024Y132173D02*
D03*
Y129024D02*
D03*
Y125874D02*
D03*
Y122724D02*
D03*
Y119575D02*
D03*
Y116425D02*
D03*
Y113276D02*
D03*
Y110126D02*
D03*
Y106976D02*
D03*
Y103827D02*
D03*
X147173Y132173D02*
D03*
Y129024D02*
D03*
Y125874D02*
D03*
Y122724D02*
D03*
Y119575D02*
D03*
Y116425D02*
D03*
Y113276D02*
D03*
Y110126D02*
D03*
Y106976D02*
D03*
Y103827D02*
D03*
D23*
X111811Y94980D02*
D03*
X100000D02*
D03*
X111811Y108957D02*
D03*
X100000Y108858D02*
D03*
D24*
X118000Y163500D02*
X119094Y162406D01*
Y159803D02*
Y162406D01*
X106201Y145590D02*
X106590D01*
X109531Y148531D01*
X106201Y155669D02*
X109402Y152469D01*
X110228Y164500D02*
X110965D01*
X106201Y160473D02*
X110228Y164500D01*
X106201Y155669D02*
Y160473D01*
X123465Y138000D02*
Y141500D01*
X109700Y113265D02*
X112800D01*
X111827Y94964D02*
X115900D01*
X116000Y95065D02*
X119200D01*
D25*
X153500Y130435D02*
X156800D01*
X153500Y127365D02*
X156800D01*
X145000Y161969D02*
X145965Y162933D01*
Y164500D01*
X145000Y158031D02*
X147146Y155886D01*
Y153937D02*
Y155886D01*
X103853Y122189D02*
Y130669D01*
X112677Y138000D02*
X116464D01*
X124350Y152287D02*
Y154950D01*
X122700Y156600D02*
X124350Y154950D01*
X122700Y156600D02*
Y156800D01*
X156800Y130435D02*
Y133335D01*
X100000Y94980D02*
X102520Y97500D01*
X109291D01*
X111811Y94980D01*
X139964Y138000D02*
Y141500D01*
X143035Y138000D02*
Y141500D01*
X145800D01*
X148500Y138800D01*
X136535Y138000D02*
Y141500D01*
X133465Y138000D02*
Y141500D01*
X130272D02*
X133465D01*
X126535Y138000D02*
Y141500D01*
X136535D02*
Y144165D01*
X136200Y144500D02*
X136535Y144165D01*
Y136335D02*
Y138000D01*
X132200Y134200D02*
X134400D01*
X136535Y136335D01*
X126535Y141500D02*
Y144096D01*
X131300Y148860D01*
Y149200D01*
X116464Y138000D02*
Y141500D01*
X139365Y164600D02*
X139464Y164500D01*
X134600Y164600D02*
X139365D01*
D26*
X103937Y115748D02*
D03*
X147244Y96063D02*
D03*
X155118Y139370D02*
D03*
D27*
X144100Y135200D02*
D03*
X136400Y127198D02*
D03*
X118827Y113276D02*
D03*
X149000Y113500D02*
D03*
X145500Y108500D02*
D03*
X142500Y101500D02*
D03*
X149000Y102000D02*
D03*
Y133000D02*
D03*
X145374Y101610D02*
D03*
X149000Y111000D02*
D03*
X133414Y105586D02*
D03*
X137724Y110126D02*
D03*
X142500Y108500D02*
D03*
X149000Y116000D02*
D03*
Y105000D02*
D03*
X128276Y122724D02*
D03*
Y125874D02*
D03*
X137724Y119575D02*
D03*
X134575Y116425D02*
D03*
X128276Y119575D02*
D03*
Y116425D02*
D03*
X131425D02*
D03*
Y113276D02*
D03*
X134575Y110126D02*
D03*
X118827Y106976D02*
D03*
X144024D02*
D03*
Y129024D02*
D03*
X140874Y106976D02*
D03*
Y110126D02*
D03*
Y113276D02*
D03*
X139483Y105000D02*
D03*
X119626Y152287D02*
D03*
X137700Y132200D02*
D03*
X140874Y132173D02*
D03*
X139800Y134400D02*
D03*
X142500Y121000D02*
D03*
X115900Y98035D02*
D03*
X116036Y121900D02*
D03*
X125100Y122700D02*
D03*
X122000D02*
D03*
X106300Y107500D02*
D03*
X137724Y113276D02*
D03*
X125126Y125874D02*
D03*
X129800Y130700D02*
D03*
X117000Y110000D02*
D03*
X122000Y119600D02*
D03*
X116500Y119500D02*
D03*
X140874Y125874D02*
D03*
X139115Y124115D02*
D03*
X118504Y98031D02*
D03*
D28*
X102300Y94800D02*
D03*
X101200Y104873D02*
D03*
X153500Y130435D02*
D03*
Y127300D02*
D03*
X101200Y99900D02*
D03*
X125535Y145500D02*
D03*
X131465Y152500D02*
D03*
X149000Y162000D02*
D03*
X147800Y159900D02*
D03*
X118000Y163500D02*
D03*
X142200Y164400D02*
D03*
X129900Y144500D02*
D03*
X140000Y148756D02*
D03*
X110516Y156110D02*
D03*
X127600Y159600D02*
D03*
X102850Y160823D02*
D03*
X102900Y163900D02*
D03*
X102500Y151464D02*
D03*
X123500Y142900D02*
D03*
X104700Y130300D02*
D03*
X113500Y163600D02*
D03*
X95300Y109500D02*
D03*
X106100Y97500D02*
D03*
X138000Y152900D02*
D03*
X140000Y141800D02*
D03*
X148500Y138800D02*
D03*
X136200Y144500D02*
D03*
X135400Y148500D02*
D03*
X132200Y134200D02*
D03*
X128900Y137200D02*
D03*
X131300Y149200D02*
D03*
X112700Y113200D02*
D03*
X112300Y116300D02*
D03*
X100000Y108858D02*
D03*
X134300Y139800D02*
D03*
X149100Y158000D02*
D03*
X151500Y141600D02*
D03*
X121700Y163700D02*
D03*
X125600Y165000D02*
D03*
X128200Y164600D02*
D03*
X134600D02*
D03*
X131200Y164500D02*
D03*
X112500Y139100D02*
D03*
X102500Y144890D02*
D03*
D29*
X122775Y149138D02*
D03*
X119600Y145900D02*
D03*
X119626Y149138D02*
D03*
X128400Y155200D02*
D03*
X126800Y156700D02*
D03*
X117300Y153900D02*
D03*
X117400Y155700D02*
D03*
X128400Y153000D02*
D03*
X124350Y152287D02*
D03*
X122775D02*
D03*
Y150713D02*
D03*
X121201D02*
D03*
Y152287D02*
D03*
X124350Y149138D02*
D03*
X125925D02*
D03*
X109500Y143900D02*
D03*
X115500D02*
D03*
X122700Y156800D02*
D03*
X153500Y133500D02*
D03*
X145374Y138504D02*
D03*
X137724Y122724D02*
D03*
D30*
X109531Y152469D02*
D03*
Y148531D02*
D03*
X113469Y152469D02*
D03*
Y148531D02*
D03*
X145000Y161969D02*
D03*
Y158031D02*
D03*
M02*
