G04 Layer_Color=13813960*
%FSLAX25Y25*%
%MOIN*%
G70*
G01*
G75*
%ADD10C,0.00600*%
%ADD24C,0.01000*%
%ADD62C,0.00787*%
%ADD104C,0.00394*%
D10*
X108400Y124900D02*
X104401D01*
X105734Y123567D01*
X104401Y122234D01*
X108400D01*
X105068Y118235D02*
X104401Y118902D01*
Y120235D01*
X105068Y120901D01*
X105734D01*
X106401Y120235D01*
Y118902D01*
X107067Y118235D01*
X107734D01*
X108400Y118902D01*
Y120235D01*
X107734Y120901D01*
X109066Y116902D02*
Y114237D01*
X104401Y112904D02*
X108400D01*
X107067Y111571D01*
X108400Y110238D01*
X104401D01*
X105734Y108905D02*
X108400Y107572D01*
X105734Y106239D01*
X108400Y104906D02*
Y103574D01*
Y104240D01*
X104401D01*
X105068Y104906D01*
X108400Y101574D02*
X107734D01*
Y100908D01*
X108400D01*
Y101574D01*
X105068Y98242D02*
X104401Y97575D01*
Y96242D01*
X105068Y95576D01*
X107734D01*
X108400Y96242D01*
Y97575D01*
X107734Y98242D01*
X105068D01*
D24*
X120303Y110854D02*
Y130146D01*
X135264Y110854D02*
Y130146D01*
X120500Y110854D02*
X135067D01*
X120500Y130146D02*
X135067D01*
X127783Y110854D02*
Y130146D01*
X120500Y120500D02*
X135067D01*
D62*
X147716Y100815D02*
X149685D01*
X110315D02*
X112283D01*
X110315D02*
Y102783D01*
Y138216D02*
Y140185D01*
X112283D01*
X147716D02*
X149685D01*
Y138216D02*
Y140185D01*
Y100815D02*
Y102783D01*
X118445Y147957D02*
Y155043D01*
X127106D01*
Y148744D02*
Y155043D01*
X118445Y147957D02*
X126319D01*
X127106Y148744D01*
X137638Y151118D02*
X142362D01*
X137638Y140882D02*
X142362D01*
X137638D02*
Y151118D01*
X142362Y140882D02*
Y151118D01*
X134783Y160925D02*
X134862D01*
X130138D02*
Y161850D01*
Y160925D02*
X130217D01*
X134862D02*
Y161850D01*
X140866Y153898D02*
X142342D01*
X147657D02*
X149134D01*
X140866Y166102D02*
X142342D01*
X147657D02*
X149134D01*
X140866Y153898D02*
Y153996D01*
Y166004D02*
Y166102D01*
X149134Y153898D02*
Y153996D01*
Y166004D02*
Y166102D01*
X117602Y144398D02*
Y145874D01*
Y155126D02*
Y156602D01*
X105398Y144398D02*
Y145874D01*
Y155126D02*
Y156602D01*
X117504Y144398D02*
X117602D01*
X105398D02*
X105496D01*
X117504Y156602D02*
X117602D01*
X105398D02*
X105496D01*
X100669Y131488D02*
Y142512D01*
X109331D01*
Y131488D02*
Y142512D01*
X100669Y131488D02*
X109331D01*
X127382Y141138D02*
Y145862D01*
X137618Y141138D02*
Y145862D01*
X127382Y141138D02*
X137618D01*
X127382Y145862D02*
X137618D01*
X127382Y146138D02*
Y150862D01*
X137618Y146138D02*
Y150862D01*
X127382Y146138D02*
X137618D01*
X127382Y150862D02*
X137618D01*
X100488Y157669D02*
X111512D01*
X100488D02*
Y166331D01*
X111512D01*
Y157669D02*
Y166331D01*
D104*
X129016Y164429D02*
G03*
X129016Y164429I-197J0D01*
G01*
X150906Y166102D02*
G03*
X150906Y166102I-197J0D01*
G01*
X105594Y158177D02*
G03*
X105594Y158177I-197J0D01*
G01*
M02*
