G04 Layer_Color=16770453*
%FSLAX25Y25*%
%MOIN*%
G70*
G01*
G75*
%ADD18R,0.02205X0.02047*%
%ADD21R,0.02047X0.02205*%
%ADD22R,0.02756X0.02756*%
%ADD23R,0.02165X0.02165*%
%ADD37O,0.03537X0.02205*%
%ADD38O,0.02205X0.03537*%
%ADD39O,0.02205X0.03737*%
%ADD40O,0.03737X0.02205*%
%ADD41R,0.02205X0.02165*%
%ADD42R,0.02205X0.03937*%
%ADD43R,0.02165X0.02205*%
%ADD44R,0.03937X0.02205*%
%ADD45R,0.05118X0.02205*%
%ADD46C,0.00906*%
%ADD47R,0.03000X0.05000*%
%ADD48R,0.02362X0.02559*%
%ADD49R,0.02165X0.02165*%
%ADD50R,0.01063X0.02047*%
%ADD51R,0.01417X0.02047*%
%ADD52R,0.02520X0.09409*%
%ADD53R,0.02756X0.00984*%
%ADD54R,0.09370X0.06496*%
%ADD55R,0.00984X0.02756*%
%ADD56R,0.02441X0.02598*%
%ADD57R,0.07087X0.03150*%
%ADD58R,0.05000X0.03000*%
%ADD59R,0.02756X0.02756*%
%ADD60R,0.03150X0.07087*%
D18*
X125535Y145500D02*
D03*
X122465D02*
D03*
X134535Y152500D02*
D03*
X131465D02*
D03*
X119864Y158500D02*
D03*
X122935D02*
D03*
D21*
X102500Y154535D02*
D03*
Y151464D02*
D03*
Y144965D02*
D03*
Y148035D02*
D03*
X138000Y156035D02*
D03*
Y152964D02*
D03*
D22*
X140000Y143244D02*
D03*
Y148756D02*
D03*
D23*
X148000Y142228D02*
D03*
Y145772D02*
D03*
X144500Y142228D02*
D03*
Y145772D02*
D03*
D37*
X111996Y135874D02*
D03*
Y105126D02*
D03*
D38*
X114626Y102496D02*
D03*
Y138504D02*
D03*
D39*
X145374Y102496D02*
D03*
Y138504D02*
D03*
D40*
X148201Y135874D02*
D03*
Y105126D02*
D03*
D41*
X145374Y101610D02*
D03*
X114626D02*
D03*
Y139390D02*
D03*
X145374D02*
D03*
D42*
X142579Y102496D02*
D03*
X139783D02*
D03*
X136988D02*
D03*
X134193D02*
D03*
X131398D02*
D03*
X128602D02*
D03*
X125807D02*
D03*
X123012D02*
D03*
X120217D02*
D03*
X117421D02*
D03*
Y138504D02*
D03*
X120217D02*
D03*
X123012D02*
D03*
X125807D02*
D03*
X128602D02*
D03*
X131398D02*
D03*
X134193D02*
D03*
X136988D02*
D03*
X139783D02*
D03*
X142579D02*
D03*
D43*
X111110Y105126D02*
D03*
Y135874D02*
D03*
X149087D02*
D03*
Y105126D02*
D03*
D44*
X111996Y107921D02*
D03*
Y110716D02*
D03*
Y113512D02*
D03*
Y116307D02*
D03*
Y119102D02*
D03*
Y121898D02*
D03*
Y124693D02*
D03*
Y127488D02*
D03*
Y130283D02*
D03*
Y133079D02*
D03*
X148201D02*
D03*
Y130283D02*
D03*
Y127488D02*
D03*
Y124693D02*
D03*
Y121898D02*
D03*
Y116307D02*
D03*
Y113512D02*
D03*
Y110716D02*
D03*
Y107921D02*
D03*
D45*
X147610Y119102D02*
D03*
D46*
X119626Y153862D02*
D03*
X121201D02*
D03*
X122775D02*
D03*
X124350D02*
D03*
X125925D02*
D03*
X119626Y152287D02*
D03*
X121201D02*
D03*
X122775D02*
D03*
X124350D02*
D03*
X125925D02*
D03*
X119626Y150713D02*
D03*
X121201D02*
D03*
X122775D02*
D03*
X124350D02*
D03*
X125925D02*
D03*
X119626Y149138D02*
D03*
X121201D02*
D03*
X122775D02*
D03*
X124350D02*
D03*
X125925D02*
D03*
D47*
X118000Y163500D02*
D03*
X122500D02*
D03*
X113500D02*
D03*
D48*
X101200Y94727D02*
D03*
Y98073D02*
D03*
Y104873D02*
D03*
Y101527D02*
D03*
D49*
X134772Y156000D02*
D03*
X131228D02*
D03*
X144228Y152000D02*
D03*
X147772D02*
D03*
D50*
X130925Y164429D02*
D03*
X134075D02*
D03*
D51*
X132500Y160571D02*
D03*
D52*
X145000Y160000D02*
D03*
D53*
X141358Y156063D02*
D03*
Y158031D02*
D03*
Y160000D02*
D03*
Y161969D02*
D03*
Y163937D02*
D03*
X148642Y156063D02*
D03*
Y158031D02*
D03*
Y160000D02*
D03*
Y161969D02*
D03*
Y163937D02*
D03*
D54*
X111500Y150500D02*
D03*
D55*
X115437Y144890D02*
D03*
X113469D02*
D03*
X111500D02*
D03*
X109531D02*
D03*
X107563D02*
D03*
X115437Y156110D02*
D03*
X113469D02*
D03*
X111500D02*
D03*
X109531D02*
D03*
X107563D02*
D03*
D56*
X137500Y161268D02*
D03*
Y164732D02*
D03*
D57*
X105000Y133850D02*
D03*
Y140150D02*
D03*
D58*
X96000Y99600D02*
D03*
Y95100D02*
D03*
Y104100D02*
D03*
Y108600D02*
D03*
D59*
X135256Y143500D02*
D03*
X129744D02*
D03*
X135256Y148500D02*
D03*
X129744D02*
D03*
D60*
X109150Y162000D02*
D03*
X102850D02*
D03*
M02*
