G04 Layer_Physical_Order=4*
G04 Layer_Color=56745*
%FSLAX25Y25*%
%MOIN*%
G70*
G01*
G75*
%ADD10C,0.00600*%
%ADD24C,0.01000*%
%ADD28C,0.01400*%
%ADD29C,0.01100*%
%ADD30C,0.01000*%
%ADD35C,0.00800*%
D10*
X145374Y138504D02*
X146000Y137878D01*
Y128600D02*
Y137878D01*
X144700Y127300D02*
X146000Y128600D01*
X129018Y149138D02*
X142500Y135656D01*
X139115Y127115D02*
X142500Y130500D01*
X139115Y124115D02*
Y127115D01*
X137765Y122765D02*
X142465D01*
X137724Y122724D02*
X137765Y122765D01*
X142465D02*
X153500Y133800D01*
X140874Y125874D02*
X142300Y127300D01*
X149100Y144000D02*
X151500Y141600D01*
X149100Y144000D02*
Y158000D01*
X134858Y108500D02*
X136484Y110126D01*
X121300Y108500D02*
X134858D01*
X117300Y112500D02*
X121300Y108500D01*
X115000Y120864D02*
X116036Y121900D01*
X115000Y98935D02*
Y120864D01*
Y98935D02*
X115900Y98035D01*
X136484Y110126D02*
X137724D01*
X153500Y133800D02*
Y135921D01*
Y133500D02*
Y133800D01*
X148421Y141000D02*
X153500Y135921D01*
X142921Y141000D02*
X148421D01*
X135421Y148500D02*
X142921Y141000D01*
X135400Y148500D02*
X135421D01*
X119600Y143998D02*
X136400Y127198D01*
X139800Y134400D02*
Y136721D01*
X136564Y132200D02*
X137700D01*
X142300Y127300D02*
X144700D01*
X129521Y147000D02*
X139800Y136721D01*
X125925Y149138D02*
X129018D01*
X117300Y112500D02*
Y114200D01*
X118300Y115200D02*
Y149650D01*
X117300Y114200D02*
X118300Y115200D01*
Y149650D02*
X119362Y150713D01*
X121201D01*
X130866Y111925D02*
X147425D01*
X123500Y147000D02*
X129521D01*
X122775Y147724D02*
X123500Y147000D01*
X122775Y147724D02*
Y149138D01*
X118827Y113276D02*
X129516D01*
X130866Y111925D01*
X147425D02*
X149000Y113500D01*
X119626Y149138D02*
X136564Y132200D01*
X119600Y143998D02*
Y145900D01*
X142500Y130500D02*
Y135656D01*
D24*
X108400Y114700D02*
Y131900D01*
X102558Y108858D02*
X108400Y114700D01*
X100000Y108858D02*
X102558D01*
X102500Y137800D02*
X108400Y131900D01*
X102500Y137800D02*
Y144890D01*
X124000Y161400D02*
X141604D01*
X121700Y163700D02*
X124000Y161400D01*
X141604D02*
X144157Y163953D01*
X107000Y152743D02*
X110367Y156110D01*
X107000Y146400D02*
Y152743D01*
X110516Y156110D02*
X113500Y159094D01*
Y163600D01*
X107000Y146400D02*
X109500Y143900D01*
X115400D01*
X144157Y163953D02*
X145822D01*
X146984Y162790D01*
Y160716D02*
Y162790D01*
Y160716D02*
X147800Y159900D01*
D28*
X102500Y144890D02*
D03*
X121700Y163700D02*
D03*
X151500Y141600D02*
D03*
X149100Y158000D02*
D03*
X100000Y108858D02*
D03*
X135400Y148500D02*
D03*
X113500Y163600D02*
D03*
X110516Y156110D02*
D03*
X142200Y164400D02*
D03*
X147800Y159900D02*
D03*
D29*
X139115Y124115D02*
D03*
X140874Y125874D02*
D03*
X116036Y121900D02*
D03*
X115900Y98035D02*
D03*
X139800Y134400D02*
D03*
X137700Y132200D02*
D03*
X137724Y110126D02*
D03*
X149000Y113500D02*
D03*
X118827Y113276D02*
D03*
X136400Y127198D02*
D03*
D30*
X137724Y122724D02*
D03*
X145374Y138504D02*
D03*
X153500Y133500D02*
D03*
X115500Y143900D02*
D03*
X109500D02*
D03*
X125925Y149138D02*
D03*
X121201Y150713D02*
D03*
X119626Y149138D02*
D03*
X119600Y145900D02*
D03*
X122775Y149138D02*
D03*
D35*
X125000Y162800D02*
X140600D01*
X122500Y165300D02*
X125000Y162800D01*
X140600D02*
X142200Y164400D01*
X115200Y165300D02*
X122500D01*
X113500Y163600D02*
X115200Y165300D01*
M02*
